<svg width="32" height="30" viewBox="0 0 32 30" fill="none" xmlns="http://www.w3.org/2000/svg">
<path d="M15.2412 0.863861C15.6051 0.110525 16.6781 0.110524 17.042 0.863859L20.9032 8.85638C21.05 9.16015 21.34 9.36945 21.6745 9.41301L30.5426 10.5676C31.3803 10.6767 31.7137 11.711 31.0975 12.2888L24.6265 18.3562C24.3774 18.5898 24.2647 18.9343 24.3276 19.2699L25.9545 27.948C26.1092 28.7733 25.2392 29.4103 24.4991 29.0136L16.6141 24.7865C16.319 24.6283 15.9642 24.6283 15.6691 24.7865L7.78409 29.0136C7.04398 29.4103 6.174 28.7733 6.32873 27.948L7.9556 19.2699C8.01852 18.9343 7.90582 18.5898 7.65671 18.3562L1.18572 12.2888C0.569501 11.711 0.902943 10.6767 1.74061 10.5677L10.6087 9.41301C10.9432 9.36945 11.2332 9.16015 11.38 8.85638L15.2412 0.863861Z" fill="#3BC1FA"/>
</svg>
